<?xml version="1.0" standalone="no"?>
<!DOCTYPE svg PUBLIC "-//W3C//DTD SVG 20010904//EN"
 "http://www.w3.org/TR/2001/REC-SVG-20010904/DTD/svg10.dtd">
<svg version="1.0" xmlns="http://www.w3.org/2000/svg"
 width="512.000000pt" height="512.000000pt" viewBox="0 0 512.000000 512.000000"
 preserveAspectRatio="xMidYMid meet">

<g transform="translate(0.000000,512.000000) scale(0.100000,-0.100000)"
fill="#000000" stroke="none">
<path d="M4105 4855 c-24 -23 -25 -31 -25 -135 0 -104 1 -112 25 -135 15 -16
36 -25 55 -25 19 0 40 9 55 25 24 23 25 31 25 135 0 104 -1 112 -25 135 -15
16 -36 25 -55 25 -19 0 -40 -9 -55 -25z"/>
<path d="M873 4690 c-12 -5 -27 -18 -32 -29 -16 -29 -591 -2386 -598 -2448
-18 -164 86 -344 241 -417 86 -41 171 -49 470 -44 254 4 275 6 331 28 76 29
133 68 179 122 71 83 114 215 102 311 -6 40 -571 2371 -592 2440 -5 15 -62 50
-76 46 -2 0 -13 -4 -25 -9z"/>
<path d="M2533 4690 c-12 -5 -26 -17 -31 -27 -17 -31 -594 -2403 -599 -2462
-13 -142 68 -299 195 -379 101 -63 125 -67 467 -67 349 0 378 5 477 74 119 83
180 198 182 341 0 79 -21 170 -286 1252 -158 642 -292 1186 -298 1208 -8 28
-19 44 -40 55 -33 17 -36 17 -67 5z"/>
<path d="M3563 4635 c-39 -17 -56 -60 -38 -101 20 -46 135 -152 172 -160 27
-5 37 -1 64 25 45 46 36 78 -48 163 -77 78 -106 91 -150 73z"/>
<path d="M4694 4635 c-46 -20 -152 -135 -160 -172 -5 -27 -1 -37 24 -63 34
-34 51 -37 90 -16 37 20 139 125 150 156 24 62 -42 122 -104 95z"/>
<path d="M4085 4311 c-92 -24 -173 -91 -216 -176 -20 -41 -24 -65 -24 -135 0
-100 23 -159 89 -225 66 -65 126 -89 226 -89 70 0 94 4 135 24 64 31 124 91
155 155 34 72 34 198 0 270 -31 64 -92 124 -154 153 -53 25 -160 37 -211 23z"/>
<path d="M3305 4055 c-16 -15 -25 -36 -25 -55 0 -19 9 -40 25 -55 23 -24 31
-25 135 -25 104 0 112 1 135 25 16 15 25 36 25 55 0 19 -9 40 -25 55 -23 24
-31 25 -135 25 -104 0 -112 -1 -135 -25z"/>
<path d="M4745 4055 c-16 -15 -25 -36 -25 -55 0 -19 9 -40 25 -55 23 -24 31
-25 135 -25 104 0 112 1 135 25 16 15 25 36 25 55 0 19 -9 40 -25 55 -23 24
-31 25 -135 25 -104 0 -112 -1 -135 -25z"/>
<path d="M3675 3620 c-29 -12 -142 -131 -153 -160 -14 -37 8 -85 45 -98 42
-14 76 4 150 79 79 81 89 115 45 159 -31 31 -51 35 -87 20z"/>
<path d="M4559 3601 c-33 -33 -35 -50 -15 -89 20 -37 125 -139 156 -150 59
-22 120 39 98 98 -11 31 -113 136 -150 156 -39 20 -56 18 -89 -15z"/>
<path d="M4105 3415 c-24 -23 -25 -31 -25 -135 0 -104 1 -112 25 -135 15 -16
36 -25 55 -25 19 0 40 9 55 25 24 23 25 31 25 135 0 104 -1 112 -25 135 -15
16 -36 25 -55 25 -19 0 -40 -9 -55 -25z"/>
<path d="M720 1310 l0 -280 160 0 160 0 0 280 0 280 -160 0 -160 0 0 -280z"/>
<path d="M2402 1313 l3 -278 158 -3 157 -3 0 281 0 280 -160 0 -160 0 2 -277z"/>
<path d="M388 855 c-58 -21 -87 -45 -116 -94 -26 -44 -27 -53 -30 -208 l-4
-163 2326 0 2326 0 0 130 c0 71 -5 152 -11 180 -13 60 -53 111 -113 143 l-41
22 -2150 2 c-1783 1 -2156 -1 -2187 -12z"/>
</g>
</svg>
