<?xml version="1.0" standalone="no"?>
<!DOCTYPE svg PUBLIC "-//W3C//DTD SVG 20010904//EN"
 "http://www.w3.org/TR/2001/REC-SVG-20010904/DTD/svg10.dtd">
<svg version="1.0" xmlns="http://www.w3.org/2000/svg"
 width="512.000000pt" height="512.000000pt" viewBox="0 0 512.000000 512.000000"
 preserveAspectRatio="xMidYMid meet">

<g transform="translate(0.000000,512.000000) scale(0.100000,-0.100000)"
fill="#000000" stroke="none">
<path d="M2365 5110 c-184 -37 -349 -178 -410 -350 -97 -274 52 -581 330 -682
73 -26 226 -35 308 -18 150 31 304 152 371 292 87 182 68 389 -52 546 -129
169 -345 252 -547 212z"/>
<path d="M1345 4546 c-106 -50 -152 -126 -141 -236 l6 -66 -50 -21 -50 -21 19
-41 c10 -23 20 -44 23 -46 3 -3 26 3 51 14 l46 20 126 -386 c70 -212 138 -403
152 -423 33 -51 89 -86 165 -105 35 -8 185 -28 333 -45 359 -40 331 -33 346
-78 6 -20 27 -72 46 -116 18 -43 31 -81 28 -84 -3 -3 -108 7 -233 23 -125 15
-252 28 -282 28 -137 1 -254 -114 -267 -263 -10 -105 42 -190 132 -220 23 -8
35 -17 31 -25 -3 -8 -8 -29 -11 -48 -7 -34 -6 -34 39 -46 24 -6 47 -11 49 -11
3 0 10 23 17 50 7 28 16 50 20 50 52 0 705 -96 721 -106 4 -2 10 -35 14 -73 5
-53 3 -87 -11 -140 -10 -39 -22 -71 -27 -71 -4 0 -225 61 -489 135 -265 74
-490 135 -500 135 -60 0 -94 -113 -43 -146 13 -8 241 -77 507 -151 266 -74
486 -138 490 -142 4 -4 -78 -135 -183 -291 -104 -157 -199 -302 -209 -322 -11
-20 -22 -60 -25 -90 -3 -29 10 -260 28 -513 39 -513 40 -519 120 -597 43 -42
129 -78 186 -78 104 0 213 70 257 165 31 65 31 94 -2 547 l-27 368 83 125 c46
69 85 123 87 121 2 -2 -1 -40 -7 -85 -19 -125 -11 -209 25 -266 17 -27 217
-231 460 -470 472 -462 466 -457 585 -458 196 0 330 192 261 374 -20 52 -49
84 -334 366 -172 170 -340 336 -375 368 -52 49 -62 63 -58 84 3 14 17 89 32
166 18 100 37 165 65 228 90 202 124 388 116 637 -12 381 -131 799 -368 1288
-72 150 -84 169 -151 235 -81 80 -138 113 -227 129 -160 30 -357 -64 -482
-229 l-24 -33 -248 29 c-137 17 -250 31 -252 33 -6 7 -195 589 -200 616 -15
89 -105 197 -181 220 -67 20 -152 15 -209 -12z"/>
<path d="M885 4275 c-14 -13 -25 -33 -25 -44 0 -10 86 -264 191 -563 197 -562
208 -588 260 -588 44 0 88 38 89 76 0 30 -379 1105 -398 1127 -23 26 -87 23
-117 -8z"/>
</g>
</svg>
