<?xml version="1.0" standalone="no"?>
<!DOCTYPE svg PUBLIC "-//W3C//DTD SVG 20010904//EN"
 "http://www.w3.org/TR/2001/REC-SVG-20010904/DTD/svg10.dtd">
<svg version="1.0" xmlns="http://www.w3.org/2000/svg"
 width="512.000000pt" height="512.000000pt" viewBox="0 0 512.000000 512.000000"
 preserveAspectRatio="xMidYMid meet">

<g transform="translate(0.000000,512.000000) scale(0.100000,-0.100000)"
fill="#000000" stroke="none">
<path d="M1715 5106 c-300 -60 -543 -266 -642 -547 l-28 -78 -71 -26 c-110
-40 -228 -118 -325 -215 -133 -132 -224 -283 -273 -453 -24 -83 -46 -210 -46
-268 l0 -29 433 0 c248 0 450 5 475 10 197 46 322 218 322 446 l0 64 152 0
151 0 -6 -112 c-7 -132 -25 -206 -71 -303 -68 -144 -179 -257 -322 -328 -77
-39 -163 -67 -206 -67 -15 0 -28 -2 -28 -4 0 -3 18 -37 39 -78 53 -98 80 -200
88 -335 l6 -113 -151 0 -152 0 0 58 c0 204 -84 347 -248 425 l-67 32 -285 0
-285 0 -53 -105 c-34 -68 -63 -147 -84 -225 -29 -113 -31 -131 -31 -295 0
-164 2 -182 31 -295 21 -78 50 -157 84 -225 l53 -105 585 0 585 0 58 23 c35
15 81 45 117 79 95 88 140 200 140 349 l0 64 152 0 151 0 -6 -113 c-13 -224
-78 -372 -229 -518 l-68 -66 49 -53 c124 -134 190 -312 191 -512 l0 -78 -150
0 -150 0 0 64 c0 186 -78 330 -218 404 -94 49 -127 52 -607 52 l-445 0 0 -39
c0 -111 52 -311 113 -431 113 -225 320 -418 531 -495 l71 -26 28 -78 c69 -195
212 -361 397 -459 269 -143 568 -135 834 22 67 39 189 149 234 210 l22 29 22
-29 c190 -245 501 -371 798 -324 305 49 572 270 669 556 l24 71 74 28 c163 62
352 213 452 363 102 152 171 345 186 520 l8 82 -384 0 c-217 0 -403 -5 -427
-10 -197 -46 -322 -218 -322 -446 l0 -64 -152 0 -151 0 6 113 c4 61 13 139 22
172 34 130 128 284 217 357 106 86 244 154 339 165 27 3 48 9 47 12 -2 3 -22
44 -45 91 -54 108 -72 177 -80 317 l-6 113 151 0 152 0 0 -64 c0 -198 85 -342
248 -419 l67 -32 235 0 235 0 52 104 c161 324 161 716 1 1039 l-53 107 -435 0
c-433 0 -435 0 -493 -23 -35 -15 -81 -45 -117 -79 -95 -88 -140 -200 -140
-349 l0 -64 -152 0 -151 0 6 113 c4 61 13 139 22 172 34 134 149 314 238 375
20 14 37 28 37 32 0 4 -22 30 -48 58 -122 128 -191 311 -192 513 l0 77 150 0
150 0 0 -64 c0 -228 115 -388 315 -441 47 -12 122 -15 357 -15 l298 0 0 39 c0
99 -44 279 -98 401 -99 224 -329 445 -547 527 l-71 26 -27 77 c-124 350 -476
581 -847 557 -153 -10 -280 -53 -412 -140 l-78 -51 0 -461 0 -460 -99 -493
-98 -492 280 0 c219 0 278 -3 275 -12 -3 -7 -63 -307 -134 -665 l-128 -653
-153 0 -153 0 5 23 c10 45 195 991 195 999 0 4 -124 8 -276 8 l-276 0 5 23 c3
12 62 308 131 659 l126 636 0 444 0 444 -77 51 c-85 56 -165 92 -258 117 -84
23 -272 29 -360 12z"/>
</g>
</svg>
