<?xml version="1.0" standalone="no"?>
<!DOCTYPE svg PUBLIC "-//W3C//DTD SVG 20010904//EN"
 "http://www.w3.org/TR/2001/REC-SVG-20010904/DTD/svg10.dtd">
<svg version="1.0" xmlns="http://www.w3.org/2000/svg"
 width="512.000000pt" height="512.000000pt" viewBox="0 0 512.000000 512.000000"
 preserveAspectRatio="xMidYMid meet">

<g transform="translate(0.000000,512.000000) scale(0.100000,-0.100000)"
fill="#000000" stroke="none">
<path d="M1440 4816 c-217 -61 -353 -290 -296 -501 45 -171 190 -295 363 -311
321 -30 552 308 408 596 -33 65 -105 141 -162 173 -98 53 -217 69 -313 43z"/>
<path d="M3000 4643 c-116 -41 -223 -149 -254 -257 -63 -215 50 -430 262 -500
83 -28 199 -19 282 20 83 39 155 111 194 194 28 59 31 74 31 165 0 91 -3 106
-31 165 -41 86 -108 153 -192 193 -58 28 -79 32 -157 34 -62 2 -104 -3 -135
-14z"/>
<path d="M1127 3876 c-26 -7 -64 -26 -84 -43 -20 -16 -143 -180 -272 -364
-231 -328 -241 -341 -481 -598 -135 -145 -253 -275 -262 -289 -39 -59 -33
-158 13 -216 47 -59 149 -83 223 -52 43 18 540 548 616 657 44 63 56 74 58 56
1 -12 -6 -204 -17 -427 l-20 -405 -160 -331 -160 -331 -101 -489 c-56 -269
-102 -512 -102 -540 0 -117 98 -214 215 -214 61 0 145 44 179 95 24 35 41 105
128 524 l100 484 143 295 c78 162 148 297 155 300 8 2 88 1 180 -4 l166 -9 92
-251 92 -250 26 -500 c14 -275 31 -516 37 -535 19 -56 56 -96 114 -125 47 -23
64 -26 111 -21 31 3 58 8 60 10 2 2 -8 31 -23 63 -23 50 -28 72 -27 144 0 84
1 87 83 280 l83 195 -12 245 c-7 135 -14 247 -16 249 -2 2 -46 -5 -98 -17
-119 -28 -149 -27 -211 2 -86 40 -135 115 -135 206 0 80 86 300 186 472 l27
47 -31 83 -30 83 23 470 c13 259 23 471 24 473 1 2 21 -11 46 -28 25 -17 49
-30 54 -28 18 7 222 291 214 298 -20 19 -442 305 -478 324 -38 20 -56 21 -360
23 -239 2 -332 -1 -368 -11z"/>
<path d="M2770 3756 c-55 -14 -105 -44 -141 -83 -15 -15 -131 -170 -260 -343
l-233 -315 -13 -270 c-7 -148 -12 -273 -10 -277 3 -11 306 316 362 392 27 36
53 70 58 75 6 6 7 -53 3 -165 l-7 -175 -53 -55 c-215 -222 -394 -497 -492
-753 -40 -103 -42 -134 -13 -171 37 -47 57 -49 202 -16 203 46 374 63 562 57
255 -9 419 -47 629 -144 184 -85 216 -94 347 -100 86 -4 136 -1 200 11 280 57
617 273 942 604 96 97 107 113 107 145 0 50 -49 91 -99 83 -348 -54 -669 -49
-901 15 -168 47 -366 166 -454 273 l-37 46 17 372 c9 205 18 374 19 376 2 2
330 -35 730 -83 l727 -86 54 26 c60 29 93 73 101 134 10 70 -34 153 -97 186
-26 14 -912 120 -1789 215 -416 44 -398 43 -461 26z"/>
<path d="M2420 1511 l-35 -6 -14 -100 c-10 -79 -11 -110 -1 -144 6 -24 15 -40
19 -35 5 5 36 73 69 152 l60 142 -32 -1 c-17 -1 -47 -4 -66 -8z"/>
<path d="M2490 1063 c-106 -252 -200 -479 -208 -504 -53 -162 118 -319 276
-253 46 19 88 58 112 104 55 109 441 1043 434 1050 -19 18 -279 60 -374 60
l-46 0 -194 -457z"/>
<path d="M2969 722 l-96 -227 51 -74 c61 -89 104 -120 180 -128 47 -5 64 -2
109 21 91 44 133 133 113 239 -5 28 -208 341 -250 384 -8 9 -34 -42 -107 -215z"/>
</g>
</svg>
