<?xml version="1.0" standalone="no"?>
<!DOCTYPE svg PUBLIC "-//W3C//DTD SVG 20010904//EN"
 "http://www.w3.org/TR/2001/REC-SVG-20010904/DTD/svg10.dtd">
<svg version="1.0" xmlns="http://www.w3.org/2000/svg"
 width="512.000000pt" height="512.000000pt" viewBox="0 0 512.000000 512.000000"
 preserveAspectRatio="xMidYMid meet">

<g transform="translate(0.000000,512.000000) scale(0.100000,-0.100000)"
fill="#000000" stroke="none">
<path d="M2764 4808 l-661 -301 -37 -256 c-20 -141 -36 -262 -36 -268 0 -10
80 -13 364 -13 l364 0 18 75 c10 41 20 79 23 84 4 6 63 -4 146 -23 134 -32
140 -34 137 -57 -1 -13 -21 -104 -44 -201 l-42 -178 -508 0 -508 0 0 -28 c0
-22 50 -95 200 -295 l200 -267 440 0 440 0 1 -212 1 -213 91 -75 c106 -87 205
-198 284 -319 90 -136 198 -381 177 -401 -10 -9 -274 -84 -278 -78 -1 1 -13
32 -25 68 -60 169 -165 326 -308 460 -466 435 -1181 419 -1631 -38 -113 -115
-224 -295 -268 -434 -10 -32 -22 -58 -26 -58 -19 0 -263 73 -272 81 -12 11 35
142 90 253 53 106 98 176 180 277 l62 77 -72 40 c-139 79 -288 136 -458 174
-82 18 -136 21 -450 25 l-358 5 0 -1351 c0 -743 2 -1351 5 -1351 3 0 200 57
437 127 389 113 435 125 467 116 276 -81 364 -104 461 -126 865 -194 1796
-151 2625 123 164 54 279 98 789 300 l338 135 -6 271 c-27 1094 -209 1944
-678 3151 l-43 112 -473 446 c-260 245 -479 445 -485 444 -7 0 -309 -136 -673
-301z"/>
</g>
</svg>
