<?xml version="1.0" standalone="no"?>
<!DOCTYPE svg PUBLIC "-//W3C//DTD SVG 20010904//EN"
 "http://www.w3.org/TR/2001/REC-SVG-20010904/DTD/svg10.dtd">
<svg version="1.0" xmlns="http://www.w3.org/2000/svg"
 width="512.000000pt" height="512.000000pt" viewBox="0 0 512.000000 512.000000"
 preserveAspectRatio="xMidYMid meet">

<g transform="translate(0.000000,512.000000) scale(0.100000,-0.100000)"
fill="#000000" stroke="none">
<path d="M3416 5085 c-22 -8 -49 -24 -62 -37 -48 -50 -533 -800 -540 -835 -25
-134 143 -236 250 -152 14 11 111 150 217 309 105 160 195 290 200 290 15 0
311 -372 302 -381 -4 -4 -195 -97 -423 -204 -228 -108 -417 -198 -419 -201 -2
-2 5 -6 15 -10 144 -46 305 -184 367 -314 51 -107 68 -179 68 -295 1 -158 -47
-287 -152 -411 -35 -42 -48 -65 -45 -79 3 -11 98 -326 211 -700 153 -507 212
-690 232 -719 35 -49 90 -78 157 -84 112 -9 218 88 219 200 0 41 -53 232 -232
823 -127 424 -234 778 -237 787 -4 14 52 46 293 167 164 82 299 148 300 147 2
-2 -33 -155 -77 -340 -51 -216 -80 -358 -80 -394 0 -142 51 -775 64 -800 47
-89 164 -116 237 -55 68 58 69 73 36 549 l-22 312 98 413 c82 347 97 423 93
472 -3 49 -28 108 -157 380 -250 528 -219 477 -479 797 -238 292 -284 346
-310 360 -32 16 -86 19 -124 5z"/>
<path d="M4655 4567 c-108 -36 -187 -103 -233 -197 -24 -49 -27 -67 -27 -155
0 -87 3 -107 26 -155 33 -70 103 -141 177 -177 50 -25 68 -28 152 -28 82 0
103 4 152 27 232 108 289 403 113 584 -72 73 -146 107 -245 111 -44 2 -91 -3
-115 -10z"/>
<path d="M1270 4202 c-28 -15 -86 -94 -293 -403 -336 -500 -341 -509 -341
-574 0 -64 30 -113 87 -146 48 -26 136 -24 181 6 17 12 115 150 242 342 118
178 217 323 221 323 11 -1 337 -405 336 -415 -1 -5 -302 -151 -670 -325 -625
-296 -670 -320 -700 -359 -18 -23 -37 -58 -42 -78 -6 -20 -74 -552 -152 -1183
-160 -1295 -155 -1202 -75 -1288 65 -71 143 -93 232 -67 67 19 133 81 152 140
10 33 262 2023 262 2071 0 9 4 14 9 12 5 -1 63 -73 130 -158 82 -104 126 -170
135 -200 8 -26 127 -424 266 -885 139 -462 263 -859 276 -883 29 -49 106 -98
169 -107 49 -7 124 14 169 49 46 35 86 117 86 177 0 32 -80 312 -260 910 -142
475 -258 864 -257 865 1 0 150 77 331 169 242 124 327 163 323 149 -3 -11 -45
-185 -93 -389 l-87 -370 30 -440 c33 -475 33 -478 93 -529 44 -36 100 -50 152
-35 56 15 114 73 124 124 4 21 -5 217 -21 445 l-27 407 107 453 c91 383 107
462 103 514 -4 54 -23 102 -182 436 -272 572 -229 502 -538 880 -150 184 -288
345 -307 357 -43 29 -121 31 -171 5z"/>
<path d="M2672 3650 c-69 -15 -160 -69 -212 -128 -70 -78 -95 -151 -95 -272 1
-86 4 -101 32 -160 41 -83 109 -152 192 -193 61 -30 72 -32 171 -32 98 0 109
2 172 33 87 42 167 128 200 215 18 49 23 82 23 152 0 80 -4 97 -31 155 -68
142 -190 228 -335 235 -41 2 -93 0 -117 -5z"/>
<path d="M2712 2533 c0 -76 -14 -147 -106 -531 -109 -456 -112 -471 -100 -640
l7 -91 26 14 c41 22 82 65 98 103 10 25 154 1110 163 1230 0 1 -20 2 -44 2
l-44 0 0 -87z"/>
</g>
</svg>
