<?xml version="1.0" standalone="no"?>
<!DOCTYPE svg PUBLIC "-//W3C//DTD SVG 20010904//EN"
 "http://www.w3.org/TR/2001/REC-SVG-20010904/DTD/svg10.dtd">
<svg version="1.0" xmlns="http://www.w3.org/2000/svg"
 width="512.000000pt" height="512.000000pt" viewBox="0 0 512.000000 512.000000"
 preserveAspectRatio="xMidYMid meet">

<g transform="translate(0.000000,512.000000) scale(0.100000,-0.100000)"
fill="#000000" stroke="none">
<path d="M2390 4899 c-99 -8 -265 -34 -300 -47 -17 -6 21 -38 225 -186 l245
-177 245 177 c156 113 241 180 233 185 -22 12 -200 39 -324 49 -133 11 -186
11 -324 -1z"/>
<path d="M1695 4722 c-268 -116 -518 -299 -726 -531 l-77 -85 14 -40 c7 -23
63 -195 124 -383 l111 -341 207 -88 c114 -48 262 -111 329 -140 l123 -52 325
236 325 237 0 385 0 385 -317 230 c-174 127 -319 231 -322 232 -3 2 -55 -19
-116 -45z"/>
<path d="M2988 4537 l-318 -232 0 -385 0 -385 326 -236 325 -237 112 48 c62
26 210 88 329 139 l217 92 111 342 c61 188 117 360 124 383 16 47 19 43 -148
212 -193 198 -426 357 -668 456 -48 20 -88 36 -90 35 -2 0 -146 -105 -320
-232z"/>
<path d="M652 3719 c-108 -220 -170 -416 -202 -634 -23 -156 -38 -158 235 41
132 96 239 180 239 187 -2 21 -177 551 -185 561 -4 4 -43 -65 -87 -155z"/>
<path d="M4376 3869 c-56 -158 -183 -565 -178 -570 4 -4 108 -80 232 -169 124
-90 231 -168 239 -174 12 -9 13 0 8 64 -17 196 -92 458 -191 665 -77 160 -103
204 -110 184z"/>
<path d="M2250 3127 c-168 -123 -305 -227 -305 -233 0 -6 52 -171 115 -367
l115 -357 66 0 c51 0 87 8 160 35 116 43 336 99 449 115 47 6 99 13 117 16
l32 5 91 280 c50 155 90 282 88 283 -70 53 -617 446 -619 446 -2 -1 -141 -101
-309 -223z"/>
<path d="M750 2910 c-216 -158 -316 -237 -318 -251 -15 -96 97 -598 154 -690
2 -4 42 12 88 37 161 86 316 124 501 124 220 0 404 -55 589 -178 68 -45 69
-45 85 -25 9 12 42 52 73 90 l57 69 -125 384 c-69 212 -128 388 -132 391 -7 7
-646 279 -654 279 -2 0 -145 -104 -318 -230z"/>
<path d="M3730 3005 c-173 -73 -321 -137 -327 -142 -20 -13 -176 -505 -163
-513 6 -4 64 -10 128 -13 356 -17 743 -141 1067 -341 l90 -56 33 88 c60 157
112 388 127 572 l7 76 -313 228 c-172 125 -317 230 -323 232 -6 2 -153 -57
-326 -131z"/>
<path d="M2945 2119 c-213 -27 -468 -101 -652 -189 l-104 -49 15 -28 c29 -56
85 -232 105 -331 70 -338 32 -713 -102 -1023 l-16 -36 99 -47 c197 -91 429
-158 650 -187 122 -16 398 -16 520 0 219 29 456 97 646 186 99 46 105 54 80
103 -8 15 -27 68 -44 117 -118 353 -116 741 5 1089 19 55 41 113 49 129 l15
28 -104 49 c-190 91 -441 162 -667 190 -100 12 -395 11 -495 -1z m116 -658
c27 -27 29 -35 29 -105 l0 -76 110 0 110 0 0 76 c0 70 2 78 29 105 21 21 39
29 65 29 81 0 116 -43 116 -144 l0 -66 66 0 c101 0 144 -35 144 -116 0 -26 -8
-44 -29 -65 -27 -27 -35 -29 -105 -29 l-76 0 0 -65 c0 -81 -19 -121 -67 -141
-27 -12 -42 -13 -68 -4 -55 18 -69 43 -75 129 l-5 76 -105 0 -105 0 -5 -76
c-6 -86 -20 -111 -75 -129 -26 -9 -41 -8 -68 4 -48 20 -67 60 -67 141 l0 65
-76 0 c-70 0 -78 2 -105 29 -21 21 -29 39 -29 65 0 81 43 116 144 116 l66 0 0
66 c0 101 32 142 113 143 30 1 45 -6 68 -28z"/>
<path d="M1225 1912 c-3 -3 -5 -22 -5 -42 0 -57 -44 -219 -83 -302 -94 -204
-260 -371 -462 -464 -86 -40 -201 -73 -287 -82 l-63 -7 4 -50 c5 -70 45 -203
85 -283 111 -221 318 -384 559 -442 45 -11 96 -20 114 -20 30 0 32 2 38 48 42
310 207 566 465 718 110 65 245 110 383 129 45 6 47 8 47 38 0 63 -41 204 -85
292 -107 215 -296 372 -525 438 -87 25 -175 39 -185 29z"/>
<path d="M893 1871 c-226 -78 -428 -272 -512 -491 -16 -41 -32 -92 -36 -114
l-8 -38 44 7 c125 19 261 80 359 160 138 113 237 285 265 463 8 52 2 53 -112
13z"/>
<path d="M4372 1722 c-22 -51 -63 -191 -84 -287 -8 -38 -13 -133 -13 -260 0
-173 3 -214 23 -304 23 -103 77 -268 92 -285 16 -17 259 181 375 307 103 111
137 182 137 281 0 99 -28 159 -122 262 -102 112 -294 279 -376 327 -7 4 -19
-12 -32 -41z"/>
<path d="M1870 877 c-129 -39 -215 -91 -315 -192 -102 -101 -159 -196 -194
-325 -27 -95 -28 -133 -3 -126 9 3 31 8 47 12 59 14 165 63 235 109 174 112
315 312 364 518 6 25 4 27 -26 26 -18 0 -67 -10 -108 -22z"/>
</g>
</svg>
